<?xml version="1.0" encoding="utf-8"?>
<svg width="34" height="34" viewBox="0 0 34 34" fill="none" xmlns="http://www.w3.org/2000/svg">
<path d="M16.2916 18.9834H17.5666V31.5917H16.2916V18.9834Z" fill="#FFB18E"/>
<path d="M9.63331 12.0417C9.49164 12.325 9.34998 12.6083 9.34998 12.8917V15.5833C9.34998 16.2917 9.91664 16.8583 10.625 16.8583H23.2333C23.9416 16.8583 24.5083 16.2917 24.5083 15.5833V12.8917C24.5083 12.6083 24.3666 12.325 24.225 12.0417L20.6833 9.91667L19.975 5.95L20.5416 5.80833C21.675 5.66667 21.8166 5.38333 21.8166 5.38333V3.4C21.8166 2.69167 21.25 2.125 20.5416 2.125H13.3166C12.6083 2.26667 12.0416 2.83333 12.0416 3.54167V5.525C12.0416 5.525 12.1833 5.80833 13.3166 5.95L13.8833 6.09167L13.3166 10.0583L9.63331 12.0417Z" fill="#FFB18E"/>
</svg>
