<?xml version="1.0" encoding="utf-8"?>
<svg width="32" height="32" viewBox="0 0 32 32" fill="none" xmlns="http://www.w3.org/2000/svg">
<path d="M24.32 27.307L24.747 27.627L24.533 27.093L24.64 26.987L27.2 24.427C27.84 23.787 27.84 22.827 27.2 22.187L24 18.987C23.36 18.347 22.293 18.347 21.76 18.987L19.733 21.013C19.6848 21.0634 19.627 21.1035 19.5628 21.1309C19.4987 21.1583 19.4297 21.1724 19.36 21.1724C19.2903 21.1724 19.2213 21.1583 19.1572 21.1309C19.0931 21.1035 19.0352 21.0634 18.987 21.013C17.813 20.053 16.213 18.773 14.72 17.173C13.12 15.573 11.84 13.973 10.88 12.907C10.667 12.693 10.773 12.373 10.88 12.16L12.907 10.133C13.547 9.49296 13.547 8.53296 12.907 7.89296L9.70702 4.69296C9.17302 4.15996 8.10702 4.15996 7.46702 4.79996L4.90702 7.35996L4.80002 7.46696L4.69302 7.57296C3.41302 9.49296 5.54702 14.933 11.307 20.587C15.467 24.747 20.16 27.52 22.933 27.52C23.467 27.627 24 27.52 24.32 27.307Z" fill="#FFB18E"/>
</svg>
