<?xml version="1.0" encoding="utf-8"?>
<svg width="34" height="34" viewBox="0 0 34 34" fill="none" xmlns="http://www.w3.org/2000/svg">
<path d="M26.1799 20.8534V9.97344C26.1799 9.06677 25.3866 8.27344 24.4799 8.27344H6.34661C5.32661 8.27344 4.64661 9.06677 4.64661 9.97344V20.8534C4.64661 21.7601 5.43994 22.5534 6.34661 22.5534H24.5933C25.4999 22.5534 26.1799 21.7601 26.1799 20.8534ZM23.7999 12.1268L16.3199 16.4334C16.0933 16.5468 15.7533 16.6601 15.4133 16.6601C15.0733 16.6601 14.7333 16.5468 14.5066 16.4334L7.02661 12.1268C6.68661 11.9001 6.57327 11.5601 6.79994 11.3334C6.91327 11.1068 7.25327 10.9934 7.59327 11.1068L15.0733 15.4134C15.2999 15.5268 15.6399 15.5268 15.8666 15.4134L23.3466 11.1068C23.5733 10.9934 23.9133 10.9934 24.1399 11.3334C24.3666 11.6734 24.1399 11.9001 23.7999 12.1268Z" fill="#FFB18E"/>
<path d="M27.6533 11.4463H27.3133V20.853C27.3133 22.4396 26.0666 23.6863 24.4799 23.6863H7.81995V24.0263C7.81995 24.933 8.61328 25.7263 9.51995 25.7263H27.7666C28.6733 25.7263 29.4666 24.933 29.4666 24.0263V13.1463C29.3533 12.2396 28.6733 11.4463 27.6533 11.4463Z" fill="#FFB18E"/>
</svg>
