<?xml version="1.0" encoding="utf-8"?>
<!-- Generator: Adobe Illustrator 26.5.0, SVG Export Plug-In . SVG Version: 6.00 Build 0)  -->
<svg version="1.1" id="Warstwa_1" xmlns="http://www.w3.org/2000/svg" xmlns:xlink="http://www.w3.org/1999/xlink" x="0px" y="0px"
	 viewBox="0 0 23.4 107" style="enable-background:new 0 0 23.4 107;" xml:space="preserve">
<style type="text/css">
	.st0{fill:#0B2C40;}
	.st1{fill:#008ECA;}
</style>
<path class="st0" d="M22,53.5h-5c-1.3,0-1.7-0.4-2-1.7L0.2,1.7C-0.2,0.4,0.1,0,1.5,0h5c1.3,0,1.7,0.4,2,1.7l14.7,50.2
	C23.7,53.2,23.4,53.5,22,53.5"/>
<path class="st1" d="M1.5,53.5h5c1.3,0,1.7-0.4,2-1.7L23.3,1.7C23.7,0.4,23.4,0,22,0h-5c-1.3,0-1.7,0.4-2,1.7L0.3,51.9
	C-0.2,53.2,0.2,53.5,1.5,53.5z"/>
<path class="st0" d="M22,107h-5c-1.3,0-1.7-0.4-2-1.7L0.2,55.2c-0.4-1.3-0.1-1.7,1.3-1.7h5c1.3,0,1.7,0.4,2,1.7l14.7,50.2
	C23.7,106.7,23.4,107,22,107"/>
<path class="st1" d="M1.5,107h5c1.3,0,1.7-0.4,2-1.7l14.8-50.1c0.4-1.3,0.1-1.7-1.3-1.7h-5c-1.3,0-1.7,0.4-2,1.7L0.3,105.4
	C-0.2,106.7,0.2,107,1.5,107z"/>
</svg>
