<svg width="115" height="85" viewBox="0 0 115 85" fill="none" xmlns="http://www.w3.org/2000/svg">
<path d="M28.5199 84.6C23.7199 84.6 19.5199 83.7 15.9199 81.9C12.3199 79.9 9.41992 77.3 7.21992 74.1C5.21992 70.9 3.61992 67.1 2.41992 62.7C1.21992 58.3 0.619923 53.7 0.619923 48.9C0.619923 39.1 3.11992 29.9 8.11992 21.3C13.3199 12.7 21.3199 5.89999 32.1199 0.899983L34.8199 6.29998C29.2199 8.89999 24.2199 12.7 19.8199 17.7C15.6199 22.5 13.1199 27.6 12.3199 33C11.1199 37.2 11.0199 41.3 12.0199 45.3C16.4199 40.5 22.3199 38.1 29.7199 38.1C36.5199 38.1 42.1199 40.2 46.5199 44.4C50.9199 48.4 53.1199 54 53.1199 61.2C53.1199 68.2 50.8199 73.9 46.2199 78.3C41.6199 82.5 35.7199 84.6 28.5199 84.6ZM90.3199 84.6C85.5199 84.6 81.3199 83.7 77.7199 81.9C74.1199 79.9 71.2199 77.3 69.0199 74.1C67.0199 70.9 65.4199 67.1 64.2199 62.7C63.0199 58.3 62.4199 53.7 62.4199 48.9C62.4199 39.1 64.9199 29.9 69.9199 21.3C75.1199 12.7 83.1199 5.89999 93.9199 0.899983L96.6199 6.29998C91.0199 8.89999 86.0199 12.7 81.6199 17.7C77.4199 22.5 74.9199 27.6 74.1199 33C72.9199 37.2 72.8199 41.3 73.8199 45.3C78.2199 40.5 84.1199 38.1 91.5199 38.1C98.3199 38.1 103.92 40.2 108.32 44.4C112.72 48.4 114.92 54 114.92 61.2C114.92 68.2 112.62 73.9 108.02 78.3C103.42 82.5 97.5199 84.6 90.3199 84.6Z" fill="#FCE8DF" fill-opacity="0.48"/>
</svg>
